<mxfile host="drawio-plugin" modified="2022-01-10T07:24:43.378Z" agent="5.0 (Windows NT 6.2; Win64; x64) AppleWebKit/537.36 (KHTML, like Gecko) Chrome/89.0.4389.114 Safari/537.36" etag="9lweBUJ7xNn9FHUYWX6L" version="15.5.4" type="embed"><diagram id="23iRSUPoRavnBvh4doch" name="Page-1"><mxGraphModel dx="578" dy="620" grid="1" gridSize="10" guides="1" tooltips="1" connect="1" arrows="1" fold="1" page="1" pageScale="1" pageWidth="827" pageHeight="1169" math="0" shadow="0"><root><mxCell id="0"/><mxCell id="1" parent="0"/><mxCell id="23" value="浏览器" style="swimlane;" vertex="1" parent="1"><mxGeometry x="40" y="410" width="200" height="210" as="geometry"/></mxCell><mxCell id="26" value="" style="group" vertex="1" connectable="0" parent="23"><mxGeometry y="30" width="200" height="180" as="geometry"/></mxCell><UserObject label="" treeRoot="1" id="24"><mxCell style="whiteSpace=wrap;html=1;align=center;treeFolding=1;treeMoving=1;newEdgeStyle={&quot;edgeStyle&quot;:&quot;elbowEdgeStyle&quot;,&quot;startArrow&quot;:&quot;none&quot;,&quot;endArrow&quot;:&quot;none&quot;};" vertex="1" parent="26"><mxGeometry y="30" width="200" height="150" as="geometry"/></mxCell></UserObject><mxCell id="25" value="http://test.xyz/index.html" style="rounded=0;whiteSpace=wrap;html=1;" vertex="1" parent="26"><mxGeometry width="200" height="30" as="geometry"/></mxCell><mxCell id="27" value="Ajax" style="rounded=0;whiteSpace=wrap;html=1;" vertex="1" parent="26"><mxGeometry x="30" y="40" width="60" height="120" as="geometry"/></mxCell><mxCell id="32" value="同源策略禁止跨域数据资源" style="rounded=0;whiteSpace=wrap;html=1;" vertex="1" parent="26"><mxGeometry x="150" y="70" width="50" height="110" as="geometry"/></mxCell><mxCell id="39" value="" style="endArrow=classic;html=1;rounded=0;exitX=0;exitY=0.5;exitDx=0;exitDy=0;" edge="1" parent="26" source="32"><mxGeometry width="50" height="50" relative="1" as="geometry"><mxPoint x="140" y="125" as="sourcePoint"/><mxPoint x="100" y="125" as="targetPoint"/></mxGeometry></mxCell><mxCell id="40" value="XX" style="edgeLabel;html=1;align=center;verticalAlign=middle;resizable=0;points=[];" vertex="1" connectable="0" parent="39"><mxGeometry x="-0.35" relative="1" as="geometry"><mxPoint as="offset"/></mxGeometry></mxCell><mxCell id="28" value="" style="endArrow=classic;html=1;rounded=0;exitX=1;exitY=0;exitDx=0;exitDy=0;" edge="1" parent="1" target="29"><mxGeometry width="50" height="50" relative="1" as="geometry"><mxPoint x="130" y="500" as="sourcePoint"/><mxPoint x="390" y="500" as="targetPoint"/></mxGeometry></mxCell><mxCell id="29" value="" style="sketch=0;pointerEvents=1;shadow=0;dashed=0;html=1;strokeColor=none;fillColor=#505050;labelPosition=center;verticalLabelPosition=bottom;verticalAlign=top;outlineConnect=0;align=center;shape=mxgraph.office.servers.web_server;" vertex="1" parent="1"><mxGeometry x="430" y="420" width="120" height="160" as="geometry"/></mxCell><mxCell id="30" value="浏览器可以发起跨域请求" style="text;html=1;align=center;verticalAlign=middle;resizable=0;points=[];autosize=1;strokeColor=none;fillColor=none;" vertex="1" parent="1"><mxGeometry x="260" y="470" width="150" height="20" as="geometry"/></mxCell><mxCell id="31" value="" style="endArrow=classic;html=1;rounded=0;entryX=1.04;entryY=0.356;entryDx=0;entryDy=0;entryPerimeter=0;" edge="1" parent="1" target="32"><mxGeometry width="50" height="50" relative="1" as="geometry"><mxPoint x="420" y="549" as="sourcePoint"/><mxPoint x="270" y="550" as="targetPoint"/></mxGeometry></mxCell><mxCell id="33" value="浏览器可以接收到跨域响应" style="text;html=1;align=center;verticalAlign=middle;resizable=0;points=[];autosize=1;strokeColor=none;fillColor=none;" vertex="1" parent="1"><mxGeometry x="255" y="565" width="160" height="20" as="geometry"/></mxCell></root></mxGraphModel></diagram></mxfile>